%TF.GenerationSoftware,KiCad,Pcbnew,8.0.9-8.0.9-0~ubuntu24.04.1*%
%TF.CreationDate,2026-04-16T09:54:00-05:00*%
%TF.ProjectId,adaptador,61646170-7461-4646-9f72-2e6b69636164,rev?*%
%TF.SameCoordinates,Original*%
%TF.FileFunction,Copper,L2,Bot*%
%TF.FilePolarity,Positive*%
%FSLAX46Y46*%
G04 Gerber Fmt 4.6, Leading zero omitted, Abs format (unit mm)*
G04 Created by KiCad (PCBNEW 8.0.9-8.0.9-0~ubuntu24.04.1) date 2026-04-16 09:54:00*
%MOMM*%
%LPD*%
G01*
G04 APERTURE LIST*
G04 Aperture macros list*
%AMRoundRect*
0 Rectangle with rounded corners*
0 $1 Rounding radius*
0 $2 $3 $4 $5 $6 $7 $8 $9 X,Y pos of 4 corners*
0 Add a 4 corners polygon primitive as box body*
4,1,4,$2,$3,$4,$5,$6,$7,$8,$9,$2,$3,0*
0 Add four circle primitives for the rounded corners*
1,1,$1+$1,$2,$3*
1,1,$1+$1,$4,$5*
1,1,$1+$1,$6,$7*
1,1,$1+$1,$8,$9*
0 Add four rect primitives between the rounded corners*
20,1,$1+$1,$2,$3,$4,$5,0*
20,1,$1+$1,$4,$5,$6,$7,0*
20,1,$1+$1,$6,$7,$8,$9,0*
20,1,$1+$1,$8,$9,$2,$3,0*%
G04 Aperture macros list end*
%TA.AperFunction,ComponentPad*%
%ADD10R,2.200000X2.200000*%
%TD*%
%TA.AperFunction,ComponentPad*%
%ADD11O,2.200000X2.200000*%
%TD*%
%TA.AperFunction,ComponentPad*%
%ADD12C,1.600000*%
%TD*%
%TA.AperFunction,ComponentPad*%
%ADD13O,1.600000X1.600000*%
%TD*%
%TA.AperFunction,ComponentPad*%
%ADD14RoundRect,0.250001X-1.149999X-1.149999X1.149999X-1.149999X1.149999X1.149999X-1.149999X1.149999X0*%
%TD*%
%TA.AperFunction,ComponentPad*%
%ADD15C,2.800000*%
%TD*%
%TA.AperFunction,ComponentPad*%
%ADD16C,1.440000*%
%TD*%
%TA.AperFunction,ComponentPad*%
%ADD17R,2.400000X1.600000*%
%TD*%
%TA.AperFunction,ComponentPad*%
%ADD18O,2.400000X1.600000*%
%TD*%
%TA.AperFunction,Conductor*%
%ADD19C,1.000000*%
%TD*%
G04 APERTURE END LIST*
D10*
%TO.P,D2,1,K*%
%TO.N,Net-(D2-K)*%
X113920000Y-98500000D03*
D11*
%TO.P,D2,2,A*%
%TO.N,GND*%
X124080000Y-98500000D03*
%TD*%
D12*
%TO.P,R1,1*%
%TO.N,Net-(U1A--)*%
X135340000Y-86000000D03*
D13*
%TO.P,R1,2*%
%TO.N,b*%
X145500000Y-86000000D03*
%TD*%
D12*
%TO.P,R2,1*%
%TO.N,Net-(U1A--)*%
X145500000Y-71000000D03*
D13*
%TO.P,R2,2*%
%TO.N,x*%
X135340000Y-71000000D03*
%TD*%
D14*
%TO.P,J1,1,Pin_1*%
%TO.N,GND*%
X93500000Y-63000000D03*
D15*
%TO.P,J1,2,Pin_2*%
%TO.N,VCC*%
X98500000Y-63000000D03*
%TD*%
D16*
%TO.P,RV1,1,1*%
%TO.N,VCC*%
X91000000Y-86000000D03*
%TO.P,RV1,2,2*%
%TO.N,b*%
X91000000Y-83460000D03*
%TO.P,RV1,3,3*%
%TO.N,GND*%
X91000000Y-80920000D03*
%TD*%
D17*
%TO.P,U1,1*%
%TO.N,Net-(R3-Pad1)*%
X123325000Y-86300000D03*
D18*
%TO.P,U1,2,-*%
%TO.N,Net-(U1A--)*%
X123325000Y-83760000D03*
%TO.P,U1,3,+*%
%TO.N,GND*%
X123325000Y-81220000D03*
%TO.P,U1,4,V-*%
X123325000Y-78680000D03*
%TO.P,U1,5,+*%
X115705000Y-78680000D03*
%TO.P,U1,6,-*%
%TO.N,Net-(U1B--)*%
X115705000Y-81220000D03*
%TO.P,U1,7*%
%TO.N,Net-(D2-K)*%
X115705000Y-83760000D03*
%TO.P,U1,8,V+*%
%TO.N,VCC*%
X115705000Y-86300000D03*
%TD*%
D12*
%TO.P,R3,1*%
%TO.N,Net-(R3-Pad1)*%
X145580000Y-78500000D03*
D13*
%TO.P,R3,2*%
%TO.N,Net-(U1B--)*%
X135420000Y-78500000D03*
%TD*%
D14*
%TO.P,J2,1,Pin_1*%
%TO.N,b*%
X116500000Y-63000000D03*
D15*
%TO.P,J2,2,Pin_2*%
%TO.N,x*%
X121500000Y-63000000D03*
%TD*%
D16*
%TO.P,RV2,1,1*%
%TO.N,Net-(D2-K)*%
X91000000Y-98080000D03*
%TO.P,RV2,2,2*%
%TO.N,Net-(U1B--)*%
X91000000Y-95540000D03*
%TO.P,RV2,3,3*%
%TO.N,unconnected-(RV2-Pad3)*%
X91000000Y-93000000D03*
%TD*%
D12*
%TO.P,R4,1*%
%TO.N,Net-(R3-Pad1)*%
X135420000Y-93500000D03*
D13*
%TO.P,R4,2*%
%TO.N,Net-(U1A--)*%
X145580000Y-93500000D03*
%TD*%
D19*
%TO.N,Net-(D2-K)*%
X113920000Y-98500000D02*
X118000000Y-94420000D01*
X91000000Y-98080000D02*
X93920000Y-98080000D01*
X109000000Y-83000000D02*
X114945000Y-83000000D01*
X114945000Y-83000000D02*
X115705000Y-83760000D01*
X118000000Y-94420000D02*
X118000000Y-84500000D01*
X117260000Y-83760000D02*
X115705000Y-83760000D01*
X118000000Y-84500000D02*
X117260000Y-83760000D01*
X93920000Y-98080000D02*
X109000000Y-83000000D01*
%TO.N,VCC*%
X88000000Y-76000000D02*
X88000000Y-85500000D01*
X88500000Y-86000000D02*
X91000000Y-86000000D01*
X96000000Y-101000000D02*
X110700000Y-86300000D01*
X110700000Y-86300000D02*
X115705000Y-86300000D01*
X98500000Y-63000000D02*
X98500000Y-65500000D01*
X98500000Y-65500000D02*
X88000000Y-76000000D01*
X88000000Y-85500000D02*
X88500000Y-86000000D01*
X88000000Y-86500000D02*
X88000000Y-101000000D01*
X88000000Y-101000000D02*
X96000000Y-101000000D01*
X88500000Y-86000000D02*
X88000000Y-86500000D01*
%TO.N,x*%
X127340000Y-63000000D02*
X135340000Y-71000000D01*
X121500000Y-63000000D02*
X127340000Y-63000000D01*
%TO.N,b*%
X142000000Y-78500000D02*
X148000000Y-72500000D01*
X91000000Y-83460000D02*
X96040000Y-83460000D01*
X120500000Y-59000000D02*
X116500000Y-63000000D01*
X148000000Y-72500000D02*
X148000000Y-61500000D01*
X143500000Y-86000000D02*
X142000000Y-84500000D01*
X145500000Y-59000000D02*
X120500000Y-59000000D01*
X145500000Y-86000000D02*
X143500000Y-86000000D01*
X142000000Y-84500000D02*
X142000000Y-78500000D01*
X96040000Y-83460000D02*
X116500000Y-63000000D01*
X148000000Y-61500000D02*
X145500000Y-59000000D01*
%TO.N,Net-(U1A--)*%
X138500000Y-79000000D02*
X138500000Y-82840000D01*
X145500000Y-71000000D02*
X145500000Y-72000000D01*
X145580000Y-91080000D02*
X140500000Y-86000000D01*
X135340000Y-86000000D02*
X133100000Y-83760000D01*
X133100000Y-83760000D02*
X123325000Y-83760000D01*
X138500000Y-82840000D02*
X135340000Y-86000000D01*
X145500000Y-72000000D02*
X138500000Y-79000000D01*
X140500000Y-86000000D02*
X135340000Y-86000000D01*
X145580000Y-93500000D02*
X145580000Y-91080000D01*
%TO.N,Net-(U1B--)*%
X108280000Y-81220000D02*
X109000000Y-81220000D01*
X113000000Y-74500000D02*
X109000000Y-78500000D01*
X135420000Y-78420000D02*
X131500000Y-74500000D01*
X109000000Y-81220000D02*
X115705000Y-81220000D01*
X109000000Y-78500000D02*
X109000000Y-81220000D01*
X93960000Y-95540000D02*
X108280000Y-81220000D01*
X91000000Y-95540000D02*
X93960000Y-95540000D01*
X131500000Y-74500000D02*
X113000000Y-74500000D01*
X135420000Y-78500000D02*
X135420000Y-78420000D01*
%TO.N,Net-(R3-Pad1)*%
X147500000Y-96000000D02*
X136000000Y-96000000D01*
X135420000Y-95420000D02*
X135420000Y-93500000D01*
X131800000Y-86300000D02*
X123325000Y-86300000D01*
X136000000Y-96000000D02*
X135420000Y-95420000D01*
X135420000Y-93500000D02*
X135420000Y-89920000D01*
X147500000Y-79000000D02*
X147500000Y-96000000D01*
X135420000Y-89920000D02*
X131800000Y-86300000D01*
X145580000Y-78500000D02*
X147000000Y-78500000D01*
X147000000Y-78500000D02*
X147500000Y-79000000D01*
%TD*%
%TA.AperFunction,Conductor*%
%TO.N,GND*%
G36*
X123575000Y-80904314D02*
G01*
X123570606Y-80899920D01*
X123479394Y-80847259D01*
X123377661Y-80820000D01*
X123272339Y-80820000D01*
X123170606Y-80847259D01*
X123079394Y-80899920D01*
X123075000Y-80904314D01*
X123075000Y-78995686D01*
X123079394Y-79000080D01*
X123170606Y-79052741D01*
X123272339Y-79080000D01*
X123377661Y-79080000D01*
X123479394Y-79052741D01*
X123570606Y-79000080D01*
X123575000Y-78995686D01*
X123575000Y-80904314D01*
G37*
%TD.AperFunction*%
%TA.AperFunction,Conductor*%
G36*
X150442539Y-57020185D02*
G01*
X150488294Y-57072989D01*
X150499500Y-57124500D01*
X150499500Y-102875500D01*
X150479815Y-102942539D01*
X150427011Y-102988294D01*
X150375500Y-102999500D01*
X86124500Y-102999500D01*
X86057461Y-102979815D01*
X86011706Y-102927011D01*
X86000500Y-102875500D01*
X86000500Y-101098543D01*
X86999499Y-101098543D01*
X87037947Y-101291829D01*
X87037950Y-101291839D01*
X87113364Y-101473907D01*
X87113371Y-101473920D01*
X87222860Y-101637781D01*
X87222863Y-101637785D01*
X87362214Y-101777136D01*
X87362218Y-101777139D01*
X87526079Y-101886628D01*
X87526092Y-101886635D01*
X87708160Y-101962049D01*
X87708165Y-101962051D01*
X87708169Y-101962051D01*
X87708170Y-101962052D01*
X87901456Y-102000500D01*
X87901459Y-102000500D01*
X96098542Y-102000500D01*
X96117870Y-101996655D01*
X96195188Y-101981275D01*
X96291836Y-101962051D01*
X96345165Y-101939961D01*
X96473914Y-101886632D01*
X96637782Y-101777139D01*
X96777139Y-101637782D01*
X96777139Y-101637780D01*
X96787347Y-101627573D01*
X96787348Y-101627570D01*
X111078102Y-87336819D01*
X111139425Y-87303334D01*
X111165783Y-87300500D01*
X114429238Y-87300500D01*
X114496277Y-87320185D01*
X114502119Y-87324179D01*
X114623390Y-87412287D01*
X114712212Y-87457544D01*
X114805776Y-87505218D01*
X114805778Y-87505218D01*
X114805781Y-87505220D01*
X114910137Y-87539127D01*
X115000465Y-87568477D01*
X115101557Y-87584488D01*
X115202648Y-87600500D01*
X115202649Y-87600500D01*
X116207351Y-87600500D01*
X116207352Y-87600500D01*
X116409534Y-87568477D01*
X116604219Y-87505220D01*
X116786610Y-87412287D01*
X116802613Y-87400659D01*
X116868419Y-87377179D01*
X116936474Y-87393004D01*
X116985169Y-87443109D01*
X116999500Y-87500977D01*
X116999500Y-93954217D01*
X116979815Y-94021256D01*
X116963181Y-94041898D01*
X114141897Y-96863181D01*
X114080574Y-96896666D01*
X114054216Y-96899500D01*
X112772129Y-96899500D01*
X112772123Y-96899501D01*
X112712516Y-96905908D01*
X112577671Y-96956202D01*
X112577664Y-96956206D01*
X112462455Y-97042452D01*
X112462452Y-97042455D01*
X112376206Y-97157664D01*
X112376202Y-97157671D01*
X112325908Y-97292517D01*
X112319501Y-97352116D01*
X112319500Y-97352135D01*
X112319500Y-99647870D01*
X112319501Y-99647876D01*
X112325908Y-99707483D01*
X112376202Y-99842328D01*
X112376206Y-99842335D01*
X112462452Y-99957544D01*
X112462455Y-99957547D01*
X112577664Y-100043793D01*
X112577671Y-100043797D01*
X112712517Y-100094091D01*
X112712516Y-100094091D01*
X112719444Y-100094835D01*
X112772127Y-100100500D01*
X115067872Y-100100499D01*
X115127483Y-100094091D01*
X115262331Y-100043796D01*
X115377546Y-99957546D01*
X115463796Y-99842331D01*
X115514091Y-99707483D01*
X115520500Y-99647873D01*
X115520499Y-98365780D01*
X115540184Y-98298742D01*
X115556813Y-98278105D01*
X115584919Y-98249999D01*
X122494728Y-98249999D01*
X122494729Y-98250000D01*
X123589252Y-98250000D01*
X123567482Y-98287708D01*
X123530000Y-98427591D01*
X123530000Y-98572409D01*
X123567482Y-98712292D01*
X123589252Y-98750000D01*
X122494728Y-98750000D01*
X122494811Y-98751067D01*
X122553603Y-98995956D01*
X122649980Y-99228631D01*
X122781568Y-99443362D01*
X122781571Y-99443367D01*
X122945130Y-99634869D01*
X123136632Y-99798428D01*
X123136637Y-99798431D01*
X123351368Y-99930019D01*
X123584043Y-100026396D01*
X123828932Y-100085188D01*
X123829999Y-100085271D01*
X123830000Y-100085271D01*
X123830000Y-98990747D01*
X123867708Y-99012518D01*
X124007591Y-99050000D01*
X124152409Y-99050000D01*
X124292292Y-99012518D01*
X124330000Y-98990747D01*
X124330000Y-100085271D01*
X124331067Y-100085188D01*
X124575956Y-100026396D01*
X124808631Y-99930019D01*
X125023362Y-99798431D01*
X125023367Y-99798428D01*
X125214869Y-99634869D01*
X125378428Y-99443367D01*
X125378431Y-99443362D01*
X125510019Y-99228631D01*
X125606396Y-98995956D01*
X125665188Y-98751067D01*
X125665272Y-98750000D01*
X124570748Y-98750000D01*
X124592518Y-98712292D01*
X124630000Y-98572409D01*
X124630000Y-98427591D01*
X124592518Y-98287708D01*
X124570748Y-98250000D01*
X125665271Y-98250000D01*
X125665271Y-98249999D01*
X125665188Y-98248932D01*
X125606396Y-98004043D01*
X125510019Y-97771368D01*
X125378431Y-97556637D01*
X125378428Y-97556632D01*
X125214869Y-97365130D01*
X125023367Y-97201571D01*
X125023362Y-97201568D01*
X124808631Y-97069980D01*
X124575956Y-96973603D01*
X124331064Y-96914811D01*
X124330000Y-96914726D01*
X124330000Y-98009252D01*
X124292292Y-97987482D01*
X124152409Y-97950000D01*
X124007591Y-97950000D01*
X123867708Y-97987482D01*
X123830000Y-98009252D01*
X123830000Y-96914726D01*
X123828935Y-96914811D01*
X123584043Y-96973603D01*
X123351368Y-97069980D01*
X123136637Y-97201568D01*
X123136632Y-97201571D01*
X122945130Y-97365130D01*
X122781571Y-97556632D01*
X122781568Y-97556637D01*
X122649980Y-97771368D01*
X122553603Y-98004043D01*
X122494811Y-98248932D01*
X122494728Y-98249999D01*
X115584919Y-98249999D01*
X118777139Y-95057782D01*
X118851772Y-94946086D01*
X118886632Y-94893914D01*
X118962051Y-94711835D01*
X118962051Y-94711832D01*
X118962053Y-94711828D01*
X118976440Y-94639501D01*
X118988195Y-94580403D01*
X119000500Y-94518541D01*
X119000500Y-94321460D01*
X119000500Y-84401459D01*
X119000500Y-84401456D01*
X118972206Y-84259221D01*
X118972206Y-84259216D01*
X118962052Y-84208171D01*
X118962051Y-84208164D01*
X118916329Y-84097782D01*
X118911274Y-84085579D01*
X118886635Y-84026093D01*
X118886634Y-84026092D01*
X118886632Y-84026086D01*
X118869536Y-84000500D01*
X118777139Y-83862217D01*
X118634686Y-83719764D01*
X118634655Y-83719735D01*
X118041479Y-83126559D01*
X118041459Y-83126537D01*
X117897785Y-82982863D01*
X117897781Y-82982860D01*
X117733920Y-82873371D01*
X117733911Y-82873366D01*
X117661315Y-82843296D01*
X117605165Y-82820038D01*
X117551836Y-82797949D01*
X117551832Y-82797948D01*
X117551828Y-82797946D01*
X117455188Y-82778724D01*
X117358544Y-82759500D01*
X117358541Y-82759500D01*
X116980762Y-82759500D01*
X116913723Y-82739815D01*
X116907877Y-82735818D01*
X116786613Y-82647715D01*
X116786612Y-82647714D01*
X116786610Y-82647713D01*
X116693917Y-82600483D01*
X116643123Y-82552511D01*
X116626328Y-82484690D01*
X116648865Y-82418555D01*
X116693917Y-82379516D01*
X116786610Y-82332287D01*
X116841498Y-82292409D01*
X116952213Y-82211971D01*
X116952215Y-82211968D01*
X116952219Y-82211966D01*
X117096966Y-82067219D01*
X117096968Y-82067215D01*
X117096971Y-82067213D01*
X117188245Y-81941583D01*
X117217287Y-81901610D01*
X117310220Y-81719219D01*
X117373477Y-81524534D01*
X117405500Y-81322352D01*
X117405500Y-81117648D01*
X117397257Y-81065606D01*
X117373477Y-80915465D01*
X117342458Y-80820000D01*
X117310220Y-80720781D01*
X117310218Y-80720778D01*
X117310218Y-80720776D01*
X117248638Y-80599920D01*
X117217287Y-80538390D01*
X117147882Y-80442861D01*
X117096971Y-80372786D01*
X116952213Y-80228028D01*
X116786611Y-80107713D01*
X116693369Y-80060203D01*
X116642574Y-80012229D01*
X116625779Y-79944407D01*
X116648317Y-79878273D01*
X116693371Y-79839234D01*
X116786347Y-79791861D01*
X116951894Y-79671582D01*
X116951895Y-79671582D01*
X117096582Y-79526895D01*
X117096582Y-79526894D01*
X117216859Y-79361349D01*
X117309755Y-79179029D01*
X117372990Y-78984413D01*
X117381609Y-78930000D01*
X116020686Y-78930000D01*
X116025080Y-78925606D01*
X116077741Y-78834394D01*
X116105000Y-78732661D01*
X116105000Y-78627339D01*
X116077741Y-78525606D01*
X116025080Y-78434394D01*
X116020686Y-78430000D01*
X117381609Y-78430000D01*
X117372990Y-78375586D01*
X117309755Y-78180970D01*
X117216859Y-77998650D01*
X117096582Y-77833105D01*
X117096582Y-77833104D01*
X116951895Y-77688417D01*
X116786349Y-77568140D01*
X116604031Y-77475244D01*
X116409417Y-77412009D01*
X116207317Y-77380000D01*
X115955000Y-77380000D01*
X115955000Y-78364314D01*
X115950606Y-78359920D01*
X115859394Y-78307259D01*
X115757661Y-78280000D01*
X115652339Y-78280000D01*
X115550606Y-78307259D01*
X115459394Y-78359920D01*
X115455000Y-78364314D01*
X115455000Y-77380000D01*
X115202683Y-77380000D01*
X115000582Y-77412009D01*
X114805968Y-77475244D01*
X114623650Y-77568140D01*
X114458105Y-77688417D01*
X114458104Y-77688417D01*
X114313417Y-77833104D01*
X114313417Y-77833105D01*
X114193140Y-77998650D01*
X114100244Y-78180970D01*
X114037009Y-78375586D01*
X114028391Y-78430000D01*
X115389314Y-78430000D01*
X115384920Y-78434394D01*
X115332259Y-78525606D01*
X115305000Y-78627339D01*
X115305000Y-78732661D01*
X115332259Y-78834394D01*
X115384920Y-78925606D01*
X115389314Y-78930000D01*
X114028391Y-78930000D01*
X114037009Y-78984413D01*
X114100244Y-79179029D01*
X114193140Y-79361349D01*
X114313417Y-79526894D01*
X114313417Y-79526895D01*
X114458104Y-79671582D01*
X114623652Y-79791861D01*
X114716628Y-79839234D01*
X114767425Y-79887208D01*
X114784220Y-79955029D01*
X114761683Y-80021164D01*
X114716630Y-80060203D01*
X114623388Y-80107713D01*
X114502123Y-80195818D01*
X114436317Y-80219298D01*
X114429238Y-80219500D01*
X110124500Y-80219500D01*
X110057461Y-80199815D01*
X110011706Y-80147011D01*
X110000500Y-80095500D01*
X110000500Y-78965782D01*
X110020185Y-78898743D01*
X110036819Y-78878101D01*
X113378102Y-75536819D01*
X113439425Y-75503334D01*
X113465783Y-75500500D01*
X131034218Y-75500500D01*
X131101257Y-75520185D01*
X131121899Y-75536819D01*
X134085441Y-78500361D01*
X134118926Y-78561684D01*
X134121288Y-78577234D01*
X134134364Y-78726687D01*
X134134366Y-78726697D01*
X134193258Y-78946488D01*
X134193261Y-78946497D01*
X134289431Y-79152732D01*
X134289432Y-79152734D01*
X134419954Y-79339141D01*
X134580858Y-79500045D01*
X134580861Y-79500047D01*
X134767266Y-79630568D01*
X134973504Y-79726739D01*
X135193308Y-79785635D01*
X135355230Y-79799801D01*
X135419998Y-79805468D01*
X135420000Y-79805468D01*
X135420002Y-79805468D01*
X135476673Y-79800509D01*
X135646692Y-79785635D01*
X135866496Y-79726739D01*
X136072734Y-79630568D01*
X136259139Y-79500047D01*
X136420047Y-79339139D01*
X136550568Y-79152734D01*
X136646739Y-78946496D01*
X136705635Y-78726692D01*
X136723228Y-78525606D01*
X136725468Y-78500001D01*
X136725468Y-78499998D01*
X136716847Y-78401459D01*
X136705635Y-78273308D01*
X136646739Y-78053504D01*
X136550568Y-77847266D01*
X136420047Y-77660861D01*
X136420045Y-77660858D01*
X136259141Y-77499954D01*
X136072734Y-77369432D01*
X136072732Y-77369431D01*
X135866497Y-77273261D01*
X135866488Y-77273258D01*
X135655007Y-77216593D01*
X135599419Y-77184499D01*
X132281479Y-73866559D01*
X132281459Y-73866537D01*
X132137785Y-73722863D01*
X132137781Y-73722860D01*
X131973920Y-73613371D01*
X131973911Y-73613366D01*
X131901315Y-73583296D01*
X131845165Y-73560038D01*
X131791836Y-73537949D01*
X131791832Y-73537948D01*
X131791828Y-73537946D01*
X131695188Y-73518724D01*
X131598544Y-73499500D01*
X131598541Y-73499500D01*
X112901459Y-73499500D01*
X112901455Y-73499500D01*
X112804812Y-73518724D01*
X112708167Y-73537947D01*
X112708161Y-73537949D01*
X112654834Y-73560037D01*
X112654834Y-73560038D01*
X112609315Y-73578892D01*
X112526089Y-73613366D01*
X112526079Y-73613371D01*
X112362218Y-73722860D01*
X112362214Y-73722863D01*
X108900580Y-77184499D01*
X108362220Y-77722859D01*
X108362218Y-77722861D01*
X108292538Y-77792540D01*
X108222859Y-77862219D01*
X108113371Y-78026079D01*
X108113364Y-78026092D01*
X108037950Y-78208160D01*
X108037947Y-78208170D01*
X107999500Y-78401456D01*
X107999500Y-80170398D01*
X107979815Y-80237437D01*
X107927011Y-80283192D01*
X107922953Y-80284959D01*
X107806089Y-80333366D01*
X107806079Y-80333371D01*
X107642219Y-80442859D01*
X107583939Y-80501140D01*
X107502861Y-80582218D01*
X107502858Y-80582221D01*
X100541283Y-87543797D01*
X93581899Y-94503181D01*
X93520576Y-94536666D01*
X93494218Y-94539500D01*
X91738111Y-94539500D01*
X91671072Y-94519815D01*
X91666988Y-94517075D01*
X91642669Y-94500047D01*
X91612581Y-94478979D01*
X91485428Y-94419686D01*
X91419031Y-94388724D01*
X91413936Y-94386870D01*
X91414709Y-94384746D01*
X91363305Y-94353424D01*
X91332766Y-94290581D01*
X91341050Y-94221204D01*
X91385528Y-94167320D01*
X91414315Y-94154172D01*
X91413936Y-94153130D01*
X91419013Y-94151280D01*
X91419030Y-94151276D01*
X91612581Y-94061021D01*
X91787519Y-93938529D01*
X91938529Y-93787519D01*
X92061021Y-93612581D01*
X92151276Y-93419030D01*
X92206549Y-93212747D01*
X92225162Y-93000000D01*
X92206549Y-92787253D01*
X92151276Y-92580970D01*
X92061021Y-92387419D01*
X91938529Y-92212481D01*
X91938527Y-92212478D01*
X91787521Y-92061472D01*
X91612578Y-91938977D01*
X91612579Y-91938977D01*
X91483547Y-91878809D01*
X91419030Y-91848724D01*
X91419026Y-91848723D01*
X91419022Y-91848721D01*
X91212752Y-91793452D01*
X91212748Y-91793451D01*
X91212747Y-91793451D01*
X91212746Y-91793450D01*
X91212741Y-91793450D01*
X91000002Y-91774838D01*
X90999998Y-91774838D01*
X90787258Y-91793450D01*
X90787247Y-91793452D01*
X90580977Y-91848721D01*
X90580968Y-91848725D01*
X90387421Y-91938977D01*
X90212478Y-92061472D01*
X90061472Y-92212478D01*
X89938977Y-92387421D01*
X89848725Y-92580968D01*
X89848721Y-92580977D01*
X89793452Y-92787247D01*
X89793450Y-92787258D01*
X89774838Y-92999998D01*
X89774838Y-93000001D01*
X89793450Y-93212741D01*
X89793452Y-93212752D01*
X89848721Y-93419022D01*
X89848723Y-93419026D01*
X89848724Y-93419030D01*
X89886480Y-93499998D01*
X89938977Y-93612578D01*
X90061472Y-93787521D01*
X90212478Y-93938527D01*
X90234886Y-93954217D01*
X90387419Y-94061021D01*
X90387421Y-94061022D01*
X90387420Y-94061022D01*
X90451936Y-94091106D01*
X90580970Y-94151276D01*
X90580983Y-94151279D01*
X90586064Y-94153130D01*
X90585292Y-94155250D01*
X90636710Y-94186594D01*
X90667237Y-94249442D01*
X90658939Y-94318817D01*
X90614452Y-94372693D01*
X90585685Y-94385830D01*
X90586064Y-94386870D01*
X90580972Y-94388723D01*
X90580970Y-94388724D01*
X90580968Y-94388725D01*
X90387421Y-94478977D01*
X90212478Y-94601472D01*
X90061472Y-94752478D01*
X89938977Y-94927421D01*
X89848725Y-95120968D01*
X89848721Y-95120977D01*
X89793452Y-95327247D01*
X89793450Y-95327258D01*
X89774838Y-95539998D01*
X89774838Y-95540001D01*
X89793450Y-95752741D01*
X89793452Y-95752752D01*
X89848721Y-95959022D01*
X89848723Y-95959026D01*
X89848724Y-95959030D01*
X89891171Y-96050058D01*
X89938977Y-96152578D01*
X90061472Y-96327521D01*
X90212478Y-96478527D01*
X90212481Y-96478529D01*
X90387419Y-96601021D01*
X90387421Y-96601022D01*
X90387420Y-96601022D01*
X90413084Y-96612989D01*
X90580970Y-96691276D01*
X90580983Y-96691279D01*
X90586064Y-96693130D01*
X90585292Y-96695250D01*
X90636710Y-96726594D01*
X90667237Y-96789442D01*
X90658939Y-96858817D01*
X90614452Y-96912693D01*
X90585685Y-96925830D01*
X90586064Y-96926870D01*
X90580972Y-96928723D01*
X90580970Y-96928724D01*
X90580968Y-96928725D01*
X90387421Y-97018977D01*
X90212478Y-97141472D01*
X90061472Y-97292478D01*
X89938977Y-97467421D01*
X89848725Y-97660968D01*
X89848721Y-97660977D01*
X89793452Y-97867247D01*
X89793450Y-97867258D01*
X89774838Y-98079998D01*
X89774838Y-98080001D01*
X89793450Y-98292741D01*
X89793452Y-98292752D01*
X89848721Y-98499022D01*
X89848723Y-98499026D01*
X89848724Y-98499030D01*
X89891171Y-98590058D01*
X89938977Y-98692578D01*
X90061472Y-98867521D01*
X90212478Y-99018527D01*
X90212481Y-99018529D01*
X90387419Y-99141021D01*
X90387421Y-99141022D01*
X90387420Y-99141022D01*
X90451936Y-99171106D01*
X90580970Y-99231276D01*
X90787253Y-99286549D01*
X90939215Y-99299844D01*
X90999998Y-99305162D01*
X91000000Y-99305162D01*
X91000002Y-99305162D01*
X91053186Y-99300508D01*
X91212747Y-99286549D01*
X91419030Y-99231276D01*
X91612581Y-99141021D01*
X91666988Y-99102924D01*
X91733194Y-99080598D01*
X91738111Y-99080500D01*
X94018542Y-99080500D01*
X94037870Y-99076655D01*
X94115188Y-99061275D01*
X94211836Y-99042051D01*
X94268623Y-99018529D01*
X94268624Y-99018529D01*
X94393907Y-98966635D01*
X94393907Y-98966634D01*
X94393914Y-98966632D01*
X94557782Y-98857139D01*
X94697139Y-98717782D01*
X94697139Y-98717780D01*
X94707347Y-98707573D01*
X94707348Y-98707570D01*
X109378102Y-84036819D01*
X109439425Y-84003334D01*
X109465783Y-84000500D01*
X113925625Y-84000500D01*
X113992664Y-84020185D01*
X114038419Y-84072989D01*
X114043556Y-84086181D01*
X114077605Y-84190973D01*
X114099780Y-84259219D01*
X114192542Y-84441275D01*
X114192715Y-84441613D01*
X114313028Y-84607213D01*
X114457786Y-84751971D01*
X114588406Y-84846870D01*
X114623390Y-84872287D01*
X114694847Y-84908696D01*
X114716080Y-84919515D01*
X114766876Y-84967490D01*
X114783671Y-85035311D01*
X114761134Y-85101446D01*
X114716080Y-85140485D01*
X114623386Y-85187715D01*
X114502123Y-85275818D01*
X114436317Y-85299298D01*
X114429238Y-85299500D01*
X110601456Y-85299500D01*
X110408171Y-85337946D01*
X110408167Y-85337948D01*
X110408165Y-85337948D01*
X110408164Y-85337949D01*
X110332745Y-85369188D01*
X110332743Y-85369189D01*
X110226088Y-85413366D01*
X110153227Y-85462051D01*
X110153226Y-85462052D01*
X110062215Y-85522862D01*
X110062214Y-85522863D01*
X95621899Y-99963181D01*
X95560576Y-99996666D01*
X95534218Y-99999500D01*
X89124500Y-99999500D01*
X89057461Y-99979815D01*
X89011706Y-99927011D01*
X89000500Y-99875500D01*
X89000500Y-87124500D01*
X89020185Y-87057461D01*
X89072989Y-87011706D01*
X89124500Y-87000500D01*
X90261889Y-87000500D01*
X90328928Y-87020185D01*
X90333002Y-87022918D01*
X90387419Y-87061021D01*
X90580970Y-87151276D01*
X90787253Y-87206549D01*
X90939215Y-87219844D01*
X90999998Y-87225162D01*
X91000000Y-87225162D01*
X91000002Y-87225162D01*
X91053186Y-87220508D01*
X91212747Y-87206549D01*
X91419030Y-87151276D01*
X91612581Y-87061021D01*
X91787519Y-86938529D01*
X91938529Y-86787519D01*
X92061021Y-86612581D01*
X92151276Y-86419030D01*
X92206549Y-86212747D01*
X92225162Y-86000000D01*
X92221010Y-85952548D01*
X92219844Y-85939215D01*
X92206549Y-85787253D01*
X92151276Y-85580970D01*
X92061021Y-85387419D01*
X91938529Y-85212481D01*
X91938527Y-85212478D01*
X91787521Y-85061472D01*
X91612578Y-84938977D01*
X91612579Y-84938977D01*
X91473313Y-84874037D01*
X91419030Y-84848724D01*
X91419023Y-84848722D01*
X91413936Y-84846870D01*
X91414709Y-84844746D01*
X91363305Y-84813424D01*
X91332766Y-84750581D01*
X91341050Y-84681204D01*
X91385528Y-84627320D01*
X91414315Y-84614172D01*
X91413936Y-84613130D01*
X91419023Y-84611277D01*
X91419030Y-84611276D01*
X91612581Y-84521021D01*
X91666988Y-84482924D01*
X91733194Y-84460598D01*
X91738111Y-84460500D01*
X96138542Y-84460500D01*
X96157870Y-84456655D01*
X96235188Y-84441275D01*
X96331836Y-84422051D01*
X96390428Y-84397781D01*
X96513914Y-84346632D01*
X96677782Y-84237139D01*
X96817139Y-84097782D01*
X96817140Y-84097781D01*
X96821459Y-84093462D01*
X96821468Y-84093451D01*
X115978102Y-64936819D01*
X116039425Y-64903334D01*
X116065783Y-64900500D01*
X117700003Y-64900500D01*
X117700008Y-64900500D01*
X117802797Y-64889999D01*
X117969334Y-64834814D01*
X118118655Y-64742711D01*
X118242711Y-64618655D01*
X118334814Y-64469334D01*
X118389999Y-64302797D01*
X118400500Y-64200008D01*
X118400500Y-62999998D01*
X119594645Y-62999998D01*
X119594645Y-63000001D01*
X119614039Y-63271160D01*
X119614040Y-63271167D01*
X119664883Y-63504888D01*
X119671825Y-63536801D01*
X119748330Y-63741920D01*
X119766830Y-63791519D01*
X119897109Y-64030107D01*
X119897110Y-64030108D01*
X119897113Y-64030113D01*
X120060029Y-64247742D01*
X120060033Y-64247746D01*
X120060038Y-64247752D01*
X120252247Y-64439961D01*
X120252253Y-64439966D01*
X120252258Y-64439971D01*
X120469887Y-64602887D01*
X120469891Y-64602889D01*
X120469892Y-64602890D01*
X120708481Y-64733169D01*
X120708480Y-64733169D01*
X120708484Y-64733170D01*
X120708487Y-64733172D01*
X120963199Y-64828175D01*
X121228840Y-64885961D01*
X121480605Y-64903967D01*
X121499999Y-64905355D01*
X121500000Y-64905355D01*
X121500001Y-64905355D01*
X121518100Y-64904060D01*
X121771160Y-64885961D01*
X122036801Y-64828175D01*
X122291513Y-64733172D01*
X122291517Y-64733169D01*
X122291519Y-64733169D01*
X122498617Y-64620085D01*
X122530113Y-64602887D01*
X122747742Y-64439971D01*
X122939971Y-64247742D01*
X123087858Y-64050188D01*
X123143792Y-64008318D01*
X123187125Y-64000500D01*
X126874218Y-64000500D01*
X126941257Y-64020185D01*
X126961899Y-64036819D01*
X134013112Y-71088032D01*
X134046597Y-71149355D01*
X134048959Y-71164905D01*
X134054364Y-71226687D01*
X134054366Y-71226697D01*
X134113258Y-71446488D01*
X134113261Y-71446497D01*
X134209431Y-71652732D01*
X134209432Y-71652734D01*
X134339954Y-71839141D01*
X134500858Y-72000045D01*
X134500861Y-72000047D01*
X134687266Y-72130568D01*
X134893504Y-72226739D01*
X135113308Y-72285635D01*
X135252892Y-72297847D01*
X135339998Y-72305468D01*
X135340000Y-72305468D01*
X135340002Y-72305468D01*
X135396673Y-72300509D01*
X135566692Y-72285635D01*
X135786496Y-72226739D01*
X135992734Y-72130568D01*
X136179139Y-72000047D01*
X136340047Y-71839139D01*
X136470568Y-71652734D01*
X136566739Y-71446496D01*
X136625635Y-71226692D01*
X136645468Y-71000000D01*
X136625635Y-70773308D01*
X136566739Y-70553504D01*
X136470568Y-70347266D01*
X136340047Y-70160861D01*
X136340045Y-70160858D01*
X136179141Y-69999954D01*
X135992734Y-69869432D01*
X135992732Y-69869431D01*
X135786497Y-69773261D01*
X135786488Y-69773258D01*
X135566697Y-69714366D01*
X135566687Y-69714364D01*
X135504905Y-69708959D01*
X135439836Y-69683506D01*
X135428032Y-69673112D01*
X128124209Y-62369289D01*
X128124206Y-62369285D01*
X128124206Y-62369286D01*
X128117139Y-62362219D01*
X128117139Y-62362218D01*
X127977782Y-62222861D01*
X127977781Y-62222860D01*
X127977780Y-62222859D01*
X127813920Y-62113371D01*
X127813911Y-62113366D01*
X127730683Y-62078892D01*
X127685165Y-62060038D01*
X127658500Y-62048993D01*
X127631837Y-62037949D01*
X127631833Y-62037948D01*
X127521511Y-62016004D01*
X127438543Y-61999500D01*
X127438541Y-61999500D01*
X123187125Y-61999500D01*
X123120086Y-61979815D01*
X123087858Y-61949811D01*
X122939971Y-61752258D01*
X122939966Y-61752253D01*
X122939961Y-61752247D01*
X122747752Y-61560038D01*
X122747746Y-61560033D01*
X122747742Y-61560029D01*
X122530113Y-61397113D01*
X122530108Y-61397110D01*
X122530107Y-61397109D01*
X122291518Y-61266830D01*
X122291519Y-61266830D01*
X122241920Y-61248330D01*
X122036801Y-61171825D01*
X122036794Y-61171823D01*
X122036793Y-61171823D01*
X121771167Y-61114040D01*
X121771160Y-61114039D01*
X121500001Y-61094645D01*
X121499999Y-61094645D01*
X121228839Y-61114039D01*
X121228832Y-61114040D01*
X120963206Y-61171823D01*
X120963202Y-61171824D01*
X120963199Y-61171825D01*
X120865771Y-61208164D01*
X120708480Y-61266830D01*
X120469892Y-61397109D01*
X120469891Y-61397110D01*
X120252259Y-61560028D01*
X120252247Y-61560038D01*
X120060038Y-61752247D01*
X120060028Y-61752259D01*
X119897110Y-61969891D01*
X119897109Y-61969892D01*
X119766830Y-62208480D01*
X119719326Y-62335843D01*
X119671825Y-62463199D01*
X119671824Y-62463202D01*
X119671823Y-62463206D01*
X119614040Y-62728832D01*
X119614039Y-62728839D01*
X119594645Y-62999998D01*
X118400500Y-62999998D01*
X118400500Y-62565782D01*
X118420185Y-62498743D01*
X118436819Y-62478101D01*
X120878102Y-60036819D01*
X120939425Y-60003334D01*
X120965783Y-60000500D01*
X145034218Y-60000500D01*
X145101257Y-60020185D01*
X145121899Y-60036819D01*
X146963181Y-61878101D01*
X146996666Y-61939424D01*
X146999500Y-61965782D01*
X146999500Y-70629588D01*
X146979815Y-70696627D01*
X146927011Y-70742382D01*
X146857853Y-70752326D01*
X146794297Y-70723301D01*
X146756523Y-70664523D01*
X146755725Y-70661681D01*
X146726741Y-70553511D01*
X146726738Y-70553502D01*
X146630568Y-70347267D01*
X146630567Y-70347265D01*
X146500045Y-70160858D01*
X146339141Y-69999954D01*
X146152734Y-69869432D01*
X146152732Y-69869431D01*
X145946497Y-69773261D01*
X145946488Y-69773258D01*
X145726697Y-69714366D01*
X145726693Y-69714365D01*
X145726692Y-69714365D01*
X145726691Y-69714364D01*
X145726686Y-69714364D01*
X145500002Y-69694532D01*
X145499998Y-69694532D01*
X145273313Y-69714364D01*
X145273302Y-69714366D01*
X145053511Y-69773258D01*
X145053502Y-69773261D01*
X144847267Y-69869431D01*
X144847265Y-69869432D01*
X144660858Y-69999954D01*
X144499954Y-70160858D01*
X144369432Y-70347265D01*
X144369431Y-70347267D01*
X144273261Y-70553502D01*
X144273258Y-70553511D01*
X144214366Y-70773302D01*
X144214364Y-70773313D01*
X144194532Y-70999998D01*
X144194532Y-71000001D01*
X144214364Y-71226686D01*
X144214366Y-71226697D01*
X144273258Y-71446488D01*
X144273263Y-71446502D01*
X144352744Y-71616950D01*
X144363236Y-71686027D01*
X144334716Y-71749811D01*
X144328043Y-71757035D01*
X140862220Y-75222859D01*
X137862221Y-78222858D01*
X137862218Y-78222861D01*
X137811777Y-78273302D01*
X137722859Y-78362219D01*
X137613371Y-78526079D01*
X137613364Y-78526092D01*
X137537950Y-78708160D01*
X137537947Y-78708170D01*
X137499500Y-78901456D01*
X137499500Y-82374217D01*
X137479815Y-82441256D01*
X137463181Y-82461898D01*
X135427680Y-84497398D01*
X135366357Y-84530883D01*
X135296665Y-84525899D01*
X135252320Y-84497399D01*
X133884208Y-83129288D01*
X133884206Y-83129285D01*
X133884206Y-83129286D01*
X133877139Y-83122219D01*
X133877139Y-83122218D01*
X133737782Y-82982861D01*
X133737781Y-82982860D01*
X133737780Y-82982859D01*
X133573920Y-82873371D01*
X133573911Y-82873366D01*
X133501315Y-82843296D01*
X133445165Y-82820038D01*
X133391836Y-82797949D01*
X133391832Y-82797948D01*
X133391828Y-82797946D01*
X133295188Y-82778724D01*
X133198544Y-82759500D01*
X133198541Y-82759500D01*
X124600762Y-82759500D01*
X124533723Y-82739815D01*
X124527877Y-82735818D01*
X124406611Y-82647713D01*
X124313369Y-82600203D01*
X124262574Y-82552229D01*
X124245779Y-82484407D01*
X124268317Y-82418273D01*
X124313371Y-82379234D01*
X124406347Y-82331861D01*
X124571894Y-82211582D01*
X124571895Y-82211582D01*
X124716582Y-82066895D01*
X124716582Y-82066894D01*
X124836859Y-81901349D01*
X124929755Y-81719029D01*
X124992990Y-81524413D01*
X125001609Y-81470000D01*
X123640686Y-81470000D01*
X123645080Y-81465606D01*
X123697741Y-81374394D01*
X123725000Y-81272661D01*
X123725000Y-81167339D01*
X123697741Y-81065606D01*
X123645080Y-80974394D01*
X123640686Y-80970000D01*
X125001609Y-80970000D01*
X124992990Y-80915586D01*
X124929755Y-80720970D01*
X124836859Y-80538650D01*
X124716582Y-80373105D01*
X124716582Y-80373104D01*
X124571895Y-80228417D01*
X124406349Y-80108140D01*
X124312820Y-80060485D01*
X124262024Y-80012511D01*
X124245229Y-79944690D01*
X124267766Y-79878555D01*
X124312820Y-79839515D01*
X124406349Y-79791859D01*
X124571894Y-79671582D01*
X124571895Y-79671582D01*
X124716582Y-79526895D01*
X124716582Y-79526894D01*
X124836859Y-79361349D01*
X124929755Y-79179029D01*
X124992990Y-78984413D01*
X125001609Y-78930000D01*
X123640686Y-78930000D01*
X123645080Y-78925606D01*
X123697741Y-78834394D01*
X123725000Y-78732661D01*
X123725000Y-78627339D01*
X123697741Y-78525606D01*
X123645080Y-78434394D01*
X123640686Y-78430000D01*
X125001609Y-78430000D01*
X124992990Y-78375586D01*
X124929755Y-78180970D01*
X124836859Y-77998650D01*
X124716582Y-77833105D01*
X124716582Y-77833104D01*
X124571895Y-77688417D01*
X124406349Y-77568140D01*
X124224031Y-77475244D01*
X124029417Y-77412009D01*
X123827317Y-77380000D01*
X123575000Y-77380000D01*
X123575000Y-78364314D01*
X123570606Y-78359920D01*
X123479394Y-78307259D01*
X123377661Y-78280000D01*
X123272339Y-78280000D01*
X123170606Y-78307259D01*
X123079394Y-78359920D01*
X123075000Y-78364314D01*
X123075000Y-77380000D01*
X122822683Y-77380000D01*
X122620582Y-77412009D01*
X122425968Y-77475244D01*
X122243650Y-77568140D01*
X122078105Y-77688417D01*
X122078104Y-77688417D01*
X121933417Y-77833104D01*
X121933417Y-77833105D01*
X121813140Y-77998650D01*
X121720244Y-78180970D01*
X121657009Y-78375586D01*
X121648391Y-78430000D01*
X123009314Y-78430000D01*
X123004920Y-78434394D01*
X122952259Y-78525606D01*
X122925000Y-78627339D01*
X122925000Y-78732661D01*
X122952259Y-78834394D01*
X123004920Y-78925606D01*
X123009314Y-78930000D01*
X121648391Y-78930000D01*
X121657009Y-78984413D01*
X121720244Y-79179029D01*
X121813140Y-79361349D01*
X121933417Y-79526894D01*
X121933417Y-79526895D01*
X122078104Y-79671582D01*
X122243650Y-79791859D01*
X122337179Y-79839515D01*
X122387975Y-79887490D01*
X122404770Y-79955311D01*
X122382232Y-80021446D01*
X122337179Y-80060485D01*
X122243650Y-80108140D01*
X122078105Y-80228417D01*
X122078104Y-80228417D01*
X121933417Y-80373104D01*
X121933417Y-80373105D01*
X121813140Y-80538650D01*
X121720244Y-80720970D01*
X121657009Y-80915586D01*
X121648391Y-80970000D01*
X123009314Y-80970000D01*
X123004920Y-80974394D01*
X122952259Y-81065606D01*
X122925000Y-81167339D01*
X122925000Y-81272661D01*
X122952259Y-81374394D01*
X123004920Y-81465606D01*
X123009314Y-81470000D01*
X121648391Y-81470000D01*
X121657009Y-81524413D01*
X121720244Y-81719029D01*
X121813140Y-81901349D01*
X121933417Y-82066894D01*
X121933417Y-82066895D01*
X122078104Y-82211582D01*
X122243652Y-82331861D01*
X122336628Y-82379234D01*
X122387425Y-82427208D01*
X122404220Y-82495029D01*
X122381683Y-82561164D01*
X122336630Y-82600203D01*
X122243388Y-82647713D01*
X122077786Y-82768028D01*
X121933028Y-82912786D01*
X121812715Y-83078386D01*
X121719781Y-83260776D01*
X121656522Y-83455465D01*
X121624500Y-83657648D01*
X121624500Y-83862351D01*
X121656522Y-84064534D01*
X121703190Y-84208161D01*
X121719780Y-84259219D01*
X121812542Y-84441275D01*
X121812715Y-84441613D01*
X121933028Y-84607213D01*
X122077784Y-84751969D01*
X122114068Y-84778330D01*
X122156735Y-84833659D01*
X122162715Y-84903273D01*
X122130109Y-84965068D01*
X122069271Y-84999426D01*
X122054440Y-85001938D01*
X122017519Y-85005907D01*
X121882671Y-85056202D01*
X121882664Y-85056206D01*
X121767455Y-85142452D01*
X121767452Y-85142455D01*
X121681206Y-85257664D01*
X121681202Y-85257671D01*
X121630908Y-85392517D01*
X121624501Y-85452116D01*
X121624500Y-85452135D01*
X121624500Y-87147870D01*
X121624501Y-87147876D01*
X121630908Y-87207483D01*
X121681202Y-87342328D01*
X121681206Y-87342335D01*
X121767452Y-87457544D01*
X121767455Y-87457547D01*
X121882664Y-87543793D01*
X121882671Y-87543797D01*
X122017517Y-87594091D01*
X122017516Y-87594091D01*
X122024444Y-87594835D01*
X122077127Y-87600500D01*
X124572872Y-87600499D01*
X124632483Y-87594091D01*
X124767331Y-87543796D01*
X124882546Y-87457546D01*
X124962914Y-87350188D01*
X125018847Y-87308318D01*
X125062180Y-87300500D01*
X131334218Y-87300500D01*
X131401257Y-87320185D01*
X131421899Y-87336819D01*
X134383181Y-90298101D01*
X134416666Y-90359424D01*
X134419500Y-90385782D01*
X134419500Y-92622410D01*
X134399815Y-92689449D01*
X134397076Y-92693532D01*
X134289431Y-92847267D01*
X134193261Y-93053502D01*
X134193258Y-93053511D01*
X134134366Y-93273302D01*
X134134364Y-93273313D01*
X134114532Y-93499998D01*
X134114532Y-93500001D01*
X134134364Y-93726686D01*
X134134366Y-93726697D01*
X134193258Y-93946488D01*
X134193261Y-93946497D01*
X134289431Y-94152732D01*
X134289432Y-94152734D01*
X134397075Y-94306465D01*
X134419402Y-94372671D01*
X134419500Y-94377588D01*
X134419500Y-95518541D01*
X134419500Y-95518543D01*
X134419499Y-95518543D01*
X134457947Y-95711829D01*
X134457950Y-95711839D01*
X134533364Y-95893907D01*
X134533371Y-95893920D01*
X134642860Y-96057781D01*
X134642863Y-96057785D01*
X134786537Y-96201459D01*
X134786559Y-96201479D01*
X135219735Y-96634655D01*
X135219764Y-96634686D01*
X135362214Y-96777136D01*
X135362218Y-96777139D01*
X135526079Y-96886628D01*
X135526081Y-96886629D01*
X135526086Y-96886632D01*
X135627706Y-96928724D01*
X135708164Y-96962051D01*
X135804812Y-96981275D01*
X135853135Y-96990887D01*
X135901458Y-97000500D01*
X135901459Y-97000500D01*
X147598543Y-97000500D01*
X147733760Y-96973603D01*
X147791835Y-96962051D01*
X147973914Y-96886632D01*
X148137782Y-96777139D01*
X148277139Y-96637782D01*
X148386632Y-96473914D01*
X148462051Y-96291835D01*
X148480887Y-96197141D01*
X148500500Y-96098543D01*
X148500500Y-78901456D01*
X148462052Y-78708170D01*
X148462051Y-78708169D01*
X148462051Y-78708165D01*
X148389196Y-78532275D01*
X148386635Y-78526092D01*
X148386628Y-78526079D01*
X148277139Y-78362218D01*
X148277136Y-78362214D01*
X148134686Y-78219764D01*
X148134655Y-78219735D01*
X147781479Y-77866559D01*
X147781459Y-77866537D01*
X147637784Y-77722862D01*
X147637780Y-77722859D01*
X147473920Y-77613371D01*
X147473911Y-77613366D01*
X147383688Y-77575995D01*
X147345165Y-77560038D01*
X147291836Y-77537949D01*
X147291832Y-77537948D01*
X147291828Y-77537946D01*
X147195188Y-77518724D01*
X147098544Y-77499500D01*
X147098541Y-77499500D01*
X146457588Y-77499500D01*
X146390549Y-77479815D01*
X146386465Y-77477075D01*
X146383850Y-77475244D01*
X146232734Y-77369432D01*
X146232730Y-77369430D01*
X146026497Y-77273261D01*
X146026488Y-77273258D01*
X145806697Y-77214366D01*
X145806693Y-77214365D01*
X145806692Y-77214365D01*
X145806691Y-77214364D01*
X145806686Y-77214364D01*
X145580002Y-77194532D01*
X145579998Y-77194532D01*
X145353313Y-77214364D01*
X145353302Y-77214366D01*
X145133511Y-77273258D01*
X145133502Y-77273261D01*
X144927270Y-77369430D01*
X144927266Y-77369432D01*
X144814797Y-77448182D01*
X144748592Y-77470509D01*
X144680825Y-77453497D01*
X144633013Y-77402549D01*
X144620335Y-77333839D01*
X144646817Y-77269183D01*
X144655995Y-77258925D01*
X146013462Y-75901459D01*
X148777139Y-73137782D01*
X148814129Y-73082421D01*
X148886631Y-72973916D01*
X148886636Y-72973906D01*
X148962049Y-72791839D01*
X148962051Y-72791835D01*
X148974632Y-72728582D01*
X149000500Y-72598543D01*
X149000500Y-61401456D01*
X148973720Y-61266829D01*
X148973720Y-61266828D01*
X148962051Y-61208164D01*
X148921390Y-61110001D01*
X148917040Y-61099500D01*
X148886635Y-61026093D01*
X148886634Y-61026092D01*
X148886632Y-61026086D01*
X148886628Y-61026080D01*
X148777139Y-60862217D01*
X148634686Y-60719764D01*
X148634655Y-60719735D01*
X146281479Y-58366559D01*
X146281459Y-58366537D01*
X146137785Y-58222863D01*
X146137781Y-58222860D01*
X145973920Y-58113371D01*
X145973911Y-58113366D01*
X145901315Y-58083296D01*
X145845165Y-58060038D01*
X145791836Y-58037949D01*
X145791832Y-58037948D01*
X145791828Y-58037946D01*
X145695188Y-58018724D01*
X145598544Y-57999500D01*
X145598541Y-57999500D01*
X120401459Y-57999500D01*
X120401455Y-57999500D01*
X120304812Y-58018724D01*
X120208167Y-58037947D01*
X120208161Y-58037949D01*
X120154834Y-58060037D01*
X120154834Y-58060038D01*
X120109315Y-58078892D01*
X120026089Y-58113366D01*
X120026079Y-58113371D01*
X119862218Y-58222860D01*
X119862214Y-58222863D01*
X117021899Y-61063181D01*
X116960576Y-61096666D01*
X116934218Y-61099500D01*
X115299984Y-61099500D01*
X115197204Y-61110000D01*
X115197203Y-61110001D01*
X115030664Y-61165186D01*
X115030662Y-61165187D01*
X114881348Y-61257286D01*
X114881344Y-61257289D01*
X114757289Y-61381344D01*
X114757286Y-61381348D01*
X114665187Y-61530662D01*
X114665186Y-61530664D01*
X114610001Y-61697203D01*
X114610000Y-61697204D01*
X114599500Y-61799984D01*
X114599500Y-63434217D01*
X114579815Y-63501256D01*
X114563181Y-63521898D01*
X95661899Y-82423181D01*
X95600576Y-82456666D01*
X95574218Y-82459500D01*
X91738111Y-82459500D01*
X91671072Y-82439815D01*
X91666988Y-82437075D01*
X91652896Y-82427208D01*
X91612581Y-82398979D01*
X91570238Y-82379234D01*
X91419031Y-82308724D01*
X91413936Y-82306870D01*
X91414606Y-82305028D01*
X91362293Y-82273114D01*
X91331789Y-82210255D01*
X91340111Y-82140883D01*
X91384617Y-82087022D01*
X91414097Y-82073574D01*
X91413764Y-82072658D01*
X91418864Y-82070801D01*
X91612325Y-81980589D01*
X91668030Y-81941583D01*
X91046447Y-81320000D01*
X91052661Y-81320000D01*
X91154394Y-81292741D01*
X91245606Y-81240080D01*
X91320080Y-81165606D01*
X91372741Y-81074394D01*
X91400000Y-80972661D01*
X91400000Y-80966446D01*
X92021583Y-81588029D01*
X92060589Y-81532325D01*
X92150801Y-81338864D01*
X92150805Y-81338853D01*
X92206054Y-81132662D01*
X92206055Y-81132654D01*
X92224660Y-80920002D01*
X92224660Y-80919997D01*
X92206055Y-80707345D01*
X92206054Y-80707337D01*
X92150805Y-80501146D01*
X92150802Y-80501140D01*
X92060586Y-80307669D01*
X92060582Y-80307663D01*
X92021584Y-80251968D01*
X91400000Y-80873552D01*
X91400000Y-80867339D01*
X91372741Y-80765606D01*
X91320080Y-80674394D01*
X91245606Y-80599920D01*
X91154394Y-80547259D01*
X91052661Y-80520000D01*
X91046447Y-80520000D01*
X91668030Y-79898415D01*
X91612329Y-79859413D01*
X91418859Y-79769197D01*
X91418853Y-79769194D01*
X91212662Y-79713945D01*
X91212654Y-79713944D01*
X91000002Y-79695340D01*
X90999998Y-79695340D01*
X90787345Y-79713944D01*
X90787337Y-79713945D01*
X90581146Y-79769194D01*
X90581140Y-79769197D01*
X90387671Y-79859412D01*
X90387669Y-79859413D01*
X90331969Y-79898415D01*
X90331968Y-79898415D01*
X90953554Y-80520000D01*
X90947339Y-80520000D01*
X90845606Y-80547259D01*
X90754394Y-80599920D01*
X90679920Y-80674394D01*
X90627259Y-80765606D01*
X90600000Y-80867339D01*
X90600000Y-80873553D01*
X89978415Y-80251968D01*
X89978415Y-80251969D01*
X89939413Y-80307669D01*
X89939412Y-80307671D01*
X89849197Y-80501140D01*
X89849194Y-80501146D01*
X89793945Y-80707337D01*
X89793944Y-80707345D01*
X89775340Y-80919997D01*
X89775340Y-80920002D01*
X89793944Y-81132654D01*
X89793945Y-81132662D01*
X89849194Y-81338853D01*
X89849197Y-81338859D01*
X89939413Y-81532329D01*
X89978415Y-81588030D01*
X90600000Y-80966445D01*
X90600000Y-80972661D01*
X90627259Y-81074394D01*
X90679920Y-81165606D01*
X90754394Y-81240080D01*
X90845606Y-81292741D01*
X90947339Y-81320000D01*
X90953554Y-81320000D01*
X90331968Y-81941584D01*
X90387663Y-81980582D01*
X90387669Y-81980586D01*
X90581140Y-82070802D01*
X90586236Y-82072658D01*
X90585542Y-82074563D01*
X90637647Y-82106302D01*
X90668196Y-82169139D01*
X90659922Y-82238518D01*
X90615454Y-82292409D01*
X90585744Y-82305991D01*
X90586064Y-82306870D01*
X90580972Y-82308723D01*
X90580970Y-82308724D01*
X90580968Y-82308725D01*
X90387421Y-82398977D01*
X90212478Y-82521472D01*
X90061472Y-82672478D01*
X89938977Y-82847421D01*
X89848725Y-83040968D01*
X89848721Y-83040977D01*
X89793452Y-83247247D01*
X89793450Y-83247258D01*
X89774838Y-83459998D01*
X89774838Y-83460001D01*
X89793450Y-83672741D01*
X89793452Y-83672752D01*
X89848721Y-83879022D01*
X89848723Y-83879026D01*
X89848724Y-83879030D01*
X89891171Y-83970058D01*
X89938977Y-84072578D01*
X90061472Y-84247521D01*
X90212478Y-84398527D01*
X90246073Y-84422050D01*
X90387419Y-84521021D01*
X90387421Y-84521022D01*
X90387420Y-84521022D01*
X90451936Y-84551106D01*
X90580970Y-84611276D01*
X90580983Y-84611279D01*
X90586064Y-84613130D01*
X90585292Y-84615250D01*
X90636710Y-84646594D01*
X90667237Y-84709442D01*
X90658939Y-84778817D01*
X90614452Y-84832693D01*
X90585685Y-84845830D01*
X90586064Y-84846870D01*
X90580968Y-84848724D01*
X90387420Y-84938978D01*
X90387418Y-84938979D01*
X90348283Y-84966381D01*
X90342251Y-84970606D01*
X90333012Y-84977075D01*
X90266806Y-84999402D01*
X90261889Y-84999500D01*
X89124500Y-84999500D01*
X89057461Y-84979815D01*
X89011706Y-84927011D01*
X89000500Y-84875500D01*
X89000500Y-76465782D01*
X89020185Y-76398743D01*
X89036819Y-76378101D01*
X99277136Y-66137785D01*
X99277136Y-66137784D01*
X99277139Y-66137782D01*
X99314129Y-66082421D01*
X99386631Y-65973916D01*
X99386636Y-65973906D01*
X99462049Y-65791839D01*
X99462051Y-65791835D01*
X99500500Y-65598541D01*
X99500500Y-64687124D01*
X99520185Y-64620085D01*
X99550188Y-64587858D01*
X99747742Y-64439971D01*
X99939971Y-64247742D01*
X100102887Y-64030113D01*
X100233172Y-63791513D01*
X100328175Y-63536801D01*
X100385961Y-63271160D01*
X100405355Y-63000000D01*
X100385961Y-62728840D01*
X100328175Y-62463199D01*
X100233172Y-62208487D01*
X100233170Y-62208484D01*
X100233169Y-62208480D01*
X100102890Y-61969892D01*
X100102889Y-61969891D01*
X100102887Y-61969887D01*
X99939971Y-61752258D01*
X99939966Y-61752253D01*
X99939961Y-61752247D01*
X99747752Y-61560038D01*
X99747746Y-61560033D01*
X99747742Y-61560029D01*
X99530113Y-61397113D01*
X99530108Y-61397110D01*
X99530107Y-61397109D01*
X99291518Y-61266830D01*
X99291519Y-61266830D01*
X99241920Y-61248330D01*
X99036801Y-61171825D01*
X99036794Y-61171823D01*
X99036793Y-61171823D01*
X98771167Y-61114040D01*
X98771160Y-61114039D01*
X98500001Y-61094645D01*
X98499999Y-61094645D01*
X98228839Y-61114039D01*
X98228832Y-61114040D01*
X97963206Y-61171823D01*
X97963202Y-61171824D01*
X97963199Y-61171825D01*
X97865771Y-61208164D01*
X97708480Y-61266830D01*
X97469892Y-61397109D01*
X97469891Y-61397110D01*
X97252259Y-61560028D01*
X97252247Y-61560038D01*
X97060038Y-61752247D01*
X97060028Y-61752259D01*
X96897110Y-61969891D01*
X96897109Y-61969892D01*
X96766830Y-62208480D01*
X96719326Y-62335843D01*
X96671825Y-62463199D01*
X96671824Y-62463202D01*
X96671823Y-62463206D01*
X96614040Y-62728832D01*
X96614039Y-62728839D01*
X96594645Y-62999998D01*
X96594645Y-63000001D01*
X96614039Y-63271160D01*
X96614040Y-63271167D01*
X96664883Y-63504888D01*
X96671825Y-63536801D01*
X96748330Y-63741920D01*
X96766830Y-63791519D01*
X96897109Y-64030107D01*
X96897110Y-64030108D01*
X96897113Y-64030113D01*
X97060029Y-64247742D01*
X97060033Y-64247746D01*
X97060038Y-64247752D01*
X97252247Y-64439961D01*
X97252265Y-64439977D01*
X97375674Y-64532359D01*
X97449810Y-64587858D01*
X97491682Y-64643790D01*
X97499500Y-64687124D01*
X97499500Y-65034217D01*
X97479815Y-65101256D01*
X97463181Y-65121898D01*
X87362220Y-75222859D01*
X87362218Y-75222861D01*
X87292538Y-75292540D01*
X87222859Y-75362219D01*
X87113371Y-75526079D01*
X87113364Y-75526092D01*
X87037950Y-75708160D01*
X87037947Y-75708170D01*
X86999500Y-75901456D01*
X86999500Y-85598544D01*
X87018724Y-85695188D01*
X87037947Y-85791828D01*
X87037949Y-85791836D01*
X87052136Y-85826086D01*
X87052136Y-85826087D01*
X87104517Y-85952548D01*
X87111986Y-86022017D01*
X87104517Y-86047452D01*
X87067103Y-86137780D01*
X87055869Y-86164903D01*
X87037949Y-86208164D01*
X87034264Y-86226692D01*
X86999500Y-86401456D01*
X86999500Y-86401459D01*
X86999500Y-100901459D01*
X86999500Y-101098541D01*
X86999500Y-101098543D01*
X86999499Y-101098543D01*
X86000500Y-101098543D01*
X86000500Y-61800014D01*
X91600000Y-61800014D01*
X91600000Y-62750000D01*
X92899999Y-62750000D01*
X92874979Y-62810402D01*
X92850000Y-62935981D01*
X92850000Y-63064019D01*
X92874979Y-63189598D01*
X92899999Y-63250000D01*
X91600000Y-63250000D01*
X91600000Y-64199985D01*
X91610493Y-64302689D01*
X91610494Y-64302696D01*
X91665641Y-64469118D01*
X91665643Y-64469123D01*
X91757684Y-64618344D01*
X91881655Y-64742315D01*
X92030876Y-64834356D01*
X92030881Y-64834358D01*
X92197303Y-64889505D01*
X92197310Y-64889506D01*
X92300014Y-64899999D01*
X92300027Y-64900000D01*
X93250000Y-64900000D01*
X93250000Y-63600001D01*
X93310402Y-63625021D01*
X93435981Y-63650000D01*
X93564019Y-63650000D01*
X93689598Y-63625021D01*
X93750000Y-63600001D01*
X93750000Y-64900000D01*
X94699973Y-64900000D01*
X94699985Y-64899999D01*
X94802689Y-64889506D01*
X94802696Y-64889505D01*
X94969118Y-64834358D01*
X94969123Y-64834356D01*
X95118344Y-64742315D01*
X95242315Y-64618344D01*
X95334356Y-64469123D01*
X95334358Y-64469118D01*
X95389505Y-64302696D01*
X95389506Y-64302689D01*
X95399999Y-64199985D01*
X95400000Y-64199972D01*
X95400000Y-63250000D01*
X94100001Y-63250000D01*
X94125021Y-63189598D01*
X94150000Y-63064019D01*
X94150000Y-62935981D01*
X94125021Y-62810402D01*
X94100001Y-62750000D01*
X95400000Y-62750000D01*
X95400000Y-61800027D01*
X95399999Y-61800014D01*
X95389506Y-61697310D01*
X95389505Y-61697303D01*
X95334358Y-61530881D01*
X95334356Y-61530876D01*
X95242315Y-61381655D01*
X95118344Y-61257684D01*
X94969123Y-61165643D01*
X94969118Y-61165641D01*
X94802696Y-61110494D01*
X94802689Y-61110493D01*
X94699985Y-61100000D01*
X93750000Y-61100000D01*
X93750000Y-62399998D01*
X93689598Y-62374979D01*
X93564019Y-62350000D01*
X93435981Y-62350000D01*
X93310402Y-62374979D01*
X93250000Y-62399998D01*
X93250000Y-61100000D01*
X92300014Y-61100000D01*
X92197310Y-61110493D01*
X92197303Y-61110494D01*
X92030881Y-61165641D01*
X92030876Y-61165643D01*
X91881655Y-61257684D01*
X91757684Y-61381655D01*
X91665643Y-61530876D01*
X91665641Y-61530881D01*
X91610494Y-61697303D01*
X91610493Y-61697310D01*
X91600000Y-61800014D01*
X86000500Y-61800014D01*
X86000500Y-57124500D01*
X86020185Y-57057461D01*
X86072989Y-57011706D01*
X86124500Y-57000500D01*
X150375500Y-57000500D01*
X150442539Y-57020185D01*
G37*
%TD.AperFunction*%
%TD*%
M02*
